# xmcd
#
# Track frame offsets:
#	150
#	19810
#	37094
#	58855
#	78191
#	96273
#	113484
#	130100
#	150720
#	168405
#	188821
#	215319
#	230506
#	248137
#	264489
#	285566
#	303673
#
# Disc length: 4276 seconds
#
# Revision: 0
# Processed by: cddbd v1.5.2PL0 Copyright (c) Steve Scherf et al.
# Submitted via: EasyCDDAExtractor 11.0.2.1
#
DISCID=e510b211
DTITLE=Various Artist - YU Balade Vol. 2
DYEAR=1900
DGENRE=Ballad
TTITLE0=INDEXI - Žute Dunje
TTITLE1=PRLJAVO KAZALIŠTE - Uzalud Vam Trud Svirači
TTITLE2=CRVENA JABUKA - Nekako S Proljeća
TTITLE3=MERLIN - Lažu Me
TTITLE4=POSLEDNJA IGRA LEPTIRA - Umiru Jeleni
TTITLE5=ALEN SLAVICA - Dao Sam Ti Dušu
TTITLE6=OLIVER DRAGOJEVIĆ - Brod U Boci
TTITLE7=NOVI FOSILI - Znam
TTITLE8=ZANA and BEBEK - Jabuke I Vino
TTITLE9=PARNI VALJAK - Jesen U Meni
TTITLE10=PRLJAVO KAZALIŠTE - Tu Noć Kad Si Se Udavala
TTITLE11=OLIVER DRAGOJEVIĆ - Svirajte Noćas Za Moju Dušu
TTITLE12=PILOTI - Kao Ptica Na Mom Dlanu
TTITLE13=CRVENA JABUKA - Volio Bih Da Si Tu
TTITLE14=MERLIN - Što Ti Značim Ja
TTITLE15=FILM - Mi Nismo Sami
TTITLE16=OLIVER DRAGOJEVIĆ - Za Tvoju Ljubav
EXTD=
EXTT0=
EXTT1=
EXTT2=
EXTT3=
EXTT4=
EXTT5=
EXTT6=
EXTT7=
EXTT8=
EXTT9=
EXTT10=
EXTT11=
EXTT12=
EXTT13=
EXTT14=
EXTT15=
EXTT16=
PLAYORDER=
